<?xml version="1.0" encoding="utf-8"?>
<!-- Generator: Adobe Illustrator 23.0.6, SVG Export Plug-In . SVG Version: 6.00 Build 0)  -->
<svg version="1.1" id="Layer_1" xmlns="http://www.w3.org/2000/svg" xmlns:xlink="http://www.w3.org/1999/xlink" x="0px" y="0px"
	 viewBox="0 0 339.26 47.01" style="enable-background:new 0 0 339.26 47.01;" xml:space="preserve">
<style type="text/css">
	.st0{fill:#FFFFFF;}
	.st1{fill:#3F9BD5;}
	.st2{fill:#007063;}
	.st3{fill:#EE3541;}
	.st4{fill:#02B2A8;}
	.st5{fill:#E41B49;}
	.st6{fill:#8A2062;}
	.st7{fill:#F1B432;}
	.st8{enable-background:new    ;}
</style>
<path class="st0" d="M66,17c0-1.96-1.09-3.09-4.29-3.09c-3.2,0-4.29,1.13-4.29,3.09v0.73c0,1.67,1.03,2.14,1.8,2.43l6.59,2.51
	c2.18,0.84,3.97,2.25,3.97,4.94v3.02c0,2.98-2.11,5.59-8.18,5.59s-8.21-2.61-8.21-5.59v-2.11c0-0.51,0.29-0.66,0.76-0.66h2.14
	c0.47,0,0.63,0.15,0.63,0.66v1.64c0,1.96,1.38,3.09,4.65,3.09c3.27,0,4.68-1.13,4.68-3.09v-1.71c0-1.82-1.62-2.43-3.04-2.98
	L57.1,23.1c-1.6-0.62-3.21-2.25-3.21-4.5v-2.07c0-2.98,1.86-5.59,7.78-5.59s7.85,2.62,7.85,5.59v1.6c0,0.47-0.16,0.65-0.63,0.65
	h-2.14c-0.51,0-0.75-0.17-0.75-0.65V17z"/>
<path class="st0" d="M89.6,30.62c0,2.98-1.82,5.59-8.07,5.59s-8.07-2.62-8.07-5.59v-14.1c0-2.98,1.82-5.59,8.07-5.59
	s8.07,2.62,8.07,5.59v1.78c0,0.51-0.18,0.72-0.65,0.72h-2.11c-0.51,0-0.78-0.21-0.78-0.72v-1.2c0-1.96-1.29-3.16-4.56-3.16
	s-4.52,1.2-4.52,3.16v12.93c0,1.96,1.25,3.16,4.52,3.16s4.56-1.2,4.56-3.16v-1.71c0-0.47,0.27-0.73,0.78-0.73h2.11
	c0.47,0,0.65,0.26,0.65,0.73V30.62z"/>
<path class="st0" d="M116.41,32.89h9.31c0.47,0,0.78,0.16,0.78,0.67v1.67c0,0.51-0.31,0.69-0.78,0.69h-12.28
	c-0.4,0-0.56-0.26-0.56-0.73V11.95c0-0.51,0.16-0.74,0.67-0.74h2.21c0.47,0,0.65,0.24,0.65,0.74V32.89z"/>
<path class="st0" d="M153.39,11.2c0.47,0,0.6,0.2,0.6,0.71v1.63c0,0.51-0.13,0.68-0.6,0.68h-5.71v20.96c0,0.51-0.29,0.73-0.76,0.73
	h-2.25c-0.47,0-0.77-0.22-0.77-0.73V14.23h-5.69c-0.51,0-0.61-0.18-0.61-0.68v-1.63c0-0.51,0.11-0.71,0.61-0.71L153.39,11.2
	L153.39,11.2z"/>
<path class="st0" d="M133.77,35.19c0,0.51-0.21,0.73-0.72,0.73h-2.21c-0.47,0-0.59-0.22-0.59-0.73V11.95c0-0.51,0.12-0.74,0.59-0.74
	h2.21c0.51,0,0.72,0.24,0.72,0.74V35.19z"/>
<path class="st0" d="M163.93,22.63l5.41-10.73c0.18-0.36,0.36-0.7,0.8-0.7h2.21c0.47,0,0.74,0.23,0.49,0.7l-7.1,14.21v9.12
	c0,0.47-0.21,0.69-0.68,0.69h-2.22c-0.51,0-0.63-0.22-0.63-0.69v-9.12l-7.22-14.21c-0.22-0.43-0.03-0.7,0.48-0.7h2.17
	c0.47,0,0.62,0.26,0.84,0.7L163.93,22.63z"/>
<path class="st0" d="M101.74,11.2c0.47,0,0.73,0.23,0.87,0.7l7.05,23.32c0.15,0.44-0.04,0.69-0.54,0.69h-2.3
	c-0.47,0-0.69-0.25-0.8-0.68l-1.67-5.62h-7.47l-1.67,5.62c-0.11,0.43-0.33,0.68-0.8,0.68h-2.33c-0.47,0-0.66-0.25-0.51-0.69
	l7.05-23.33c0.14-0.47,0.4-0.7,0.87-0.7L101.74,11.2L101.74,11.2z M100.61,16.54l-2.97,10.3h5.96L100.61,16.54z"/>
<path class="st1" d="M19.47,4.26v6.9h3.73V4.23l4.82,2.79l1.86-3.23l-4.87-2.82C23.89,0.32,22.63,0,21.33,0s-2.55,0.34-3.67,0.99
	l-4.88,2.83l1.87,3.23L19.47,4.26z"/>
<path class="st2" d="M19.47,4.26v6.9h3.73V4.23l4.82,2.79l1.86-3.23l-4.87-2.82C23.89,0.32,22.63,0,21.33,0s-2.55,0.34-3.67,0.99
	l-4.88,2.83l1.87,3.23L19.47,4.26z"/>
<path class="st3" d="M19.47,42.76v-6.9h3.73v6.93L28.02,40l1.86,3.23l-4.82,2.79c-1.12,0.65-2.43,0.99-3.72,0.99
	c-1.3,0-2.55-0.34-3.67-0.99l-4.88-2.83l1.87-3.23L19.47,42.76z"/>
<path class="st4" d="M37.07,12.27l-5.98,3.45l1.86,3.23l6-3.46v5.57l3.73-0.01l0.01-5.65c0-1.3-0.35-2.53-1-3.65
	s-1.57-2.04-2.7-2.68L34.1,6.26l-1.86,3.23L37.07,12.27z"/>
<path class="st5" d="M3.73,31.52l5.98-3.45l1.86,3.23l-6,3.46l4.83,2.78l-1.87,3.23l-4.89-2.82c-1.12-0.65-2.01-1.57-2.66-2.69
	S0,32.88,0,31.59l0.01-5.64l3.73,0.01L3.73,31.52z"/>
<path class="st6" d="M3.73,15.49l5.98,3.45l1.86-3.23l-6-3.47l4.83-2.78L8.53,6.24L3.65,9.05c-1.12,0.65-2.02,1.57-2.67,2.7
	C0.33,12.87,0,14.13,0,15.43l0.01,5.64h3.73L3.73,15.49z"/>
<path class="st7" d="M37.07,34.74l-5.98-3.45l1.86-3.23l6,3.47v-5.57h3.73l0.01,5.7c0,1.3-0.35,2.47-1,3.6
	c-0.65,1.12-1.57,2.04-2.7,2.69l-4.89,2.81l-1.86-3.23L37.07,34.74z"/>
<polygon class="st2" points="21.83,14.74 21.83,22.66 28.64,18.73 "/>
<polygon class="st6" points="20.84,14.74 14.04,18.73 20.84,22.66 "/>
<polygon class="st5" points="20.36,23.52 13.63,19.63 13.63,27.41 "/>
<polygon class="st4" points="22.35,23.52 29.04,27.38 29.04,19.65 "/>
<polygon class="st3" points="20.84,24.38 14.09,28.28 20.84,32.23 "/>
<polygon class="st7" points="21.83,24.38 21.83,32.23 28.58,28.28 "/>
<g class="st8">
	<path class="st0" d="M175.16,28.34c0-2.1,0.44-3.78,1.33-5.04s2.13-1.89,3.71-1.89c0.92,0,1.71,0.19,2.38,0.58
		c0.67,0.39,1.23,0.94,1.68,1.65v-7.81h1.45v18.97h-1.29l-0.12-1.91c-0.44,0.7-1,1.23-1.69,1.61c-0.69,0.37-1.5,0.56-2.43,0.56
		c-1.57,0-2.8-0.58-3.69-1.76c-0.89-1.17-1.33-2.74-1.33-4.71V28.34z M176.62,28.6c0,1.6,0.32,2.87,0.95,3.81
		c0.64,0.94,1.59,1.42,2.88,1.42c0.94,0,1.72-0.21,2.35-0.63c0.63-0.42,1.12-1.01,1.46-1.76v-6.2c-0.33-0.76-0.8-1.39-1.41-1.86
		c-0.61-0.48-1.4-0.71-2.38-0.71c-1.28,0-2.24,0.53-2.89,1.58c-0.64,1.05-0.97,2.42-0.97,4.11V28.6z"/>
	<path class="st0" d="M188.78,28.04c0-1.94,0.53-3.53,1.59-4.77c1.06-1.24,2.47-1.86,4.22-1.86c1.76,0,3.17,0.62,4.23,1.86
		c1.06,1.24,1.59,2.83,1.59,4.77v0.4c0,1.95-0.53,3.54-1.59,4.77s-2.46,1.85-4.21,1.85c-1.77,0-3.18-0.62-4.24-1.85
		c-1.06-1.24-1.59-2.83-1.59-4.77V28.04z M190.23,28.43c0,1.52,0.38,2.8,1.16,3.84c0.77,1.04,1.84,1.55,3.22,1.55
		c1.35,0,2.42-0.52,3.19-1.55c0.77-1.04,1.16-2.32,1.16-3.84v-0.4c0-1.5-0.39-2.77-1.17-3.81s-1.85-1.57-3.21-1.57
		c-1.36,0-2.43,0.52-3.2,1.57c-0.77,1.04-1.16,2.32-1.16,3.81V28.43z"/>
	<path class="st0" d="M208.33,33.82c0.96,0,1.82-0.27,2.55-0.82c0.74-0.55,1.11-1.31,1.11-2.29h1.29l0.02,0.07
		c0.04,1.22-0.45,2.23-1.46,3.05s-2.18,1.23-3.51,1.23c-1.79,0-3.18-0.61-4.15-1.84c-0.98-1.23-1.46-2.81-1.46-4.74v-0.51
		c0-1.91,0.49-3.49,1.47-4.72c0.98-1.23,2.36-1.85,4.13-1.85c1.44,0,2.64,0.42,3.61,1.28s1.42,1.97,1.39,3.36l-0.02,0.07h-1.3
		c0-1.05-0.35-1.89-1.06-2.52c-0.71-0.63-1.58-0.94-2.61-0.94c-1.41,0-2.45,0.5-3.13,1.51c-0.68,1.01-1.02,2.28-1.02,3.81v0.51
		c0,1.55,0.34,2.83,1.01,3.84S206.9,33.82,208.33,33.82z"/>
	<path class="st0" d="M224.97,32.66c-0.42,0.77-0.99,1.36-1.7,1.78c-0.71,0.42-1.56,0.63-2.53,0.63c-1.39,0-2.47-0.47-3.26-1.41
		c-0.79-0.94-1.18-2.4-1.18-4.38v-7.62h1.46v7.66c0,1.61,0.27,2.76,0.82,3.46c0.55,0.7,1.32,1.05,2.33,1.05
		c1.1,0,1.98-0.25,2.64-0.74c0.66-0.5,1.11-1.18,1.37-2.05v-9.38h1.46v13.16h-1.29L224.97,32.66z"/>
	<path class="st0" d="M231.44,21.65l0.13,2.18c0.42-0.77,0.98-1.37,1.68-1.79c0.7-0.42,1.54-0.63,2.51-0.63
		c1.01,0,1.85,0.24,2.52,0.73s1.16,1.23,1.45,2.22c0.4-0.92,0.96-1.65,1.7-2.17c0.73-0.52,1.63-0.78,2.68-0.78
		c1.4,0,2.49,0.47,3.25,1.4c0.76,0.93,1.14,2.38,1.14,4.33v7.67h-1.46V27.1c0-1.62-0.29-2.77-0.86-3.44c-0.57-0.67-1.37-1-2.39-1
		c-1.13,0-2,0.35-2.61,1.06c-0.62,0.71-1,1.61-1.14,2.72c0,0.06,0,0.14,0.01,0.24c0,0.11,0.01,0.18,0.01,0.23v7.91h-1.47V27.1
		c0-1.59-0.29-2.73-0.87-3.42c-0.58-0.69-1.38-1.03-2.39-1.03c-1.03,0-1.85,0.26-2.45,0.79c-0.6,0.52-1.03,1.23-1.27,2.11v9.26
		h-1.47V21.65H231.44z"/>
	<path class="st0" d="M257.22,35.06c-1.65,0-3.01-0.61-4.1-1.82c-1.09-1.22-1.64-2.76-1.64-4.62v-0.67c0-1.88,0.54-3.44,1.62-4.68
		c1.08-1.24,2.39-1.86,3.93-1.86c1.61,0,2.88,0.51,3.81,1.53c0.92,1.02,1.39,2.38,1.39,4.09v1.24h-9.29v0.35
		c0,1.48,0.39,2.72,1.18,3.71c0.79,1,1.82,1.49,3.1,1.49c0.91,0,1.68-0.12,2.32-0.38c0.64-0.25,1.19-0.61,1.64-1.08l0.62,1
		c-0.49,0.52-1.12,0.93-1.88,1.24C259.17,34.91,258.27,35.06,257.22,35.06z M257.04,22.65c-1.08,0-1.98,0.41-2.71,1.23
		s-1.16,1.85-1.28,3.09l0.02,0.06h7.71v-0.36c0-1.14-0.34-2.09-1.01-2.86C259.1,23.03,258.19,22.65,257.04,22.65z"/>
	<path class="st0" d="M266.4,21.65l0.13,2.3c0.42-0.81,0.99-1.44,1.71-1.88c0.72-0.44,1.57-0.66,2.55-0.66
		c1.43,0,2.51,0.44,3.26,1.31c0.75,0.87,1.12,2.23,1.12,4.08v8.01h-1.46v-8.02c0-1.51-0.28-2.58-0.85-3.21
		c-0.56-0.62-1.36-0.94-2.4-0.94c-1.02,0-1.85,0.27-2.5,0.81c-0.64,0.54-1.11,1.26-1.39,2.15v9.2h-1.46V21.65H266.4z"/>
	<path class="st0" d="M281.26,18.29v3.37h2.89v1.19h-2.89v8.57c0,0.86,0.16,1.47,0.47,1.83c0.31,0.36,0.73,0.54,1.25,0.54
		c0.23,0,0.46-0.01,0.69-0.03s0.48-0.05,0.77-0.1l0.22,1.08c-0.24,0.11-0.54,0.19-0.89,0.24s-0.7,0.08-1.05,0.08
		c-0.92,0-1.64-0.29-2.16-0.88s-0.77-1.51-0.77-2.77v-8.57h-2.27v-1.19h2.27v-3.37H281.26z"/>
	<path class="st0" d="M295.57,34.81c-0.1-0.45-0.17-0.83-0.21-1.16c-0.04-0.32-0.06-0.65-0.06-0.98c-0.49,0.69-1.13,1.26-1.95,1.71
		s-1.72,0.68-2.74,0.68c-1.28,0-2.28-0.34-2.99-1.02c-0.71-0.68-1.06-1.59-1.06-2.74c0-1.22,0.53-2.19,1.58-2.92
		s2.47-1.09,4.25-1.09h2.91v-1.63c0-0.94-0.3-1.68-0.91-2.21c-0.6-0.53-1.45-0.8-2.54-0.8c-1.01,0-1.85,0.25-2.52,0.77
		s-1,1.13-1,1.87L287,25.28l-0.02-0.07c-0.05-0.98,0.4-1.86,1.34-2.63s2.15-1.16,3.61-1.16c1.45,0,2.62,0.37,3.5,1.11
		c0.88,0.74,1.33,1.79,1.33,3.17v6.47c0,0.46,0.03,0.91,0.08,1.35c0.05,0.44,0.14,0.87,0.26,1.3H295.57z M290.79,33.78
		c1.05,0,1.97-0.25,2.77-0.74c0.8-0.49,1.38-1.12,1.74-1.88v-2.75h-2.93c-1.32,0-2.38,0.28-3.17,0.84s-1.19,1.26-1.19,2.1
		c0,0.71,0.25,1.29,0.74,1.75C289.25,33.55,289.93,33.78,290.79,33.78z"/>
	<path class="st0" d="M302.92,18.29v3.37h2.89v1.19h-2.89v8.57c0,0.86,0.16,1.47,0.47,1.83c0.31,0.36,0.73,0.54,1.25,0.54
		c0.24,0,0.46-0.01,0.69-0.03c0.22-0.02,0.48-0.05,0.77-0.1l0.22,1.08c-0.24,0.11-0.54,0.19-0.89,0.24s-0.7,0.08-1.04,0.08
		c-0.92,0-1.64-0.29-2.16-0.88c-0.51-0.58-0.77-1.51-0.77-2.77v-8.57h-2.27v-1.19h2.27v-3.37H302.92z"/>
	<path class="st0" d="M310.53,17.88h-1.45v-2.04h1.45V17.88z M310.53,34.81h-1.45V21.65h1.45V34.81z"/>
	<path class="st0" d="M313.74,28.04c0-1.94,0.53-3.53,1.59-4.77c1.06-1.24,2.47-1.86,4.22-1.86c1.76,0,3.17,0.62,4.23,1.86
		s1.59,2.83,1.59,4.77v0.4c0,1.95-0.53,3.54-1.59,4.77c-1.06,1.24-2.46,1.85-4.21,1.85c-1.77,0-3.18-0.62-4.24-1.85
		c-1.06-1.24-1.59-2.83-1.59-4.77V28.04z M315.2,28.43c0,1.52,0.39,2.8,1.16,3.84c0.77,1.04,1.84,1.55,3.22,1.55
		c1.35,0,2.42-0.52,3.19-1.55c0.77-1.04,1.16-2.32,1.16-3.84v-0.4c0-1.5-0.39-2.77-1.17-3.81s-1.85-1.57-3.21-1.57
		c-1.36,0-2.43,0.52-3.2,1.57c-0.77,1.04-1.16,2.32-1.16,3.81V28.43z"/>
	<path class="st0" d="M329.7,21.65l0.13,2.3c0.42-0.81,0.99-1.44,1.71-1.88c0.72-0.44,1.57-0.66,2.55-0.66
		c1.43,0,2.51,0.44,3.26,1.31c0.75,0.87,1.12,2.23,1.12,4.08v8.01h-1.46v-8.02c0-1.51-0.28-2.58-0.84-3.21
		c-0.56-0.62-1.36-0.94-2.4-0.94c-1.02,0-1.85,0.27-2.5,0.81c-0.64,0.54-1.11,1.26-1.39,2.15v9.2h-1.46V21.65H329.7z"/>
</g>
</svg>
