<?xml version="1.0" encoding="utf-8"?>
<!-- Generator: Adobe Illustrator 23.0.0, SVG Export Plug-In . SVG Version: 6.00 Build 0)  -->
<svg version="1.1" id="Layer_1" xmlns="http://www.w3.org/2000/svg" xmlns:xlink="http://www.w3.org/1999/xlink" x="0px" y="0px"
	 viewBox="0 0 201 58.69" style="enable-background:new 0 0 201 58.69;" xml:space="preserve">
<style type="text/css">
	.st0{fill:#3D9BD6;}
	.st1{fill:#006F62;}
	.st2{fill:#EF3340;}
	.st3{fill:#00B2A9;}
	.st4{fill:#E40046;}
	.st5{fill:#8A1B61;}
	.st6{fill:#F1B434;}
</style>
<path d="M76.71,21.81c0-2.28-1.27-3.59-4.98-3.59c-3.72,0-4.98,1.31-4.98,3.59v0.85c0,1.94,1.2,2.49,2.09,2.83l7.66,2.91
	c2.53,0.97,4.62,2.62,4.62,5.74v3.5c0,3.46-2.46,6.5-9.51,6.5s-9.55-3.04-9.55-6.5v-2.45c0-0.59,0.34-0.77,0.89-0.77h2.49
	c0.55,0,0.73,0.18,0.73,0.77v1.9c0,2.28,1.6,3.59,5.4,3.59s5.44-1.31,5.44-3.59v-1.98c0-2.11-1.88-2.83-3.53-3.46l-7.11-2.75
	c-1.86-0.72-3.73-2.62-3.73-5.23v-2.41c0-3.46,2.16-6.5,9.05-6.5c6.88,0,9.13,3.04,9.13,6.5v1.86c0,0.55-0.19,0.75-0.74,0.75h-2.49
	c-0.59,0-0.88-0.2-0.88-0.75V21.81z"/>
<path d="M104.14,37.64c0,3.46-2.12,6.5-9.38,6.5c-7.26,0-9.38-3.04-9.38-6.5V21.26c0-3.46,2.12-6.5,9.38-6.5
	c7.26,0,9.38,3.04,9.38,6.5v2.07c0,0.59-0.2,0.83-0.75,0.83h-2.45c-0.59,0-0.9-0.25-0.9-0.83v-1.39c0-2.28-1.5-3.67-5.3-3.67
	s-5.26,1.39-5.26,3.67v15.03c0,2.28,1.46,3.67,5.26,3.67s5.3-1.39,5.3-3.67v-1.99c0-0.55,0.31-0.85,0.9-0.85h2.45
	c0.55,0,0.75,0.3,0.75,0.85V37.64z"/>
<path d="M135.3,40.28h10.82c0.55,0,0.91,0.18,0.91,0.77V43c0,0.59-0.36,0.8-0.91,0.8h-14.27c-0.46,0-0.65-0.3-0.65-0.85V15.94
	c0-0.59,0.19-0.86,0.78-0.86h2.57c0.55,0,0.75,0.27,0.75,0.86V40.28z"/>
<path d="M178.28,15.07c0.55,0,0.7,0.23,0.7,0.82v1.9c0,0.59-0.15,0.79-0.7,0.79h-6.63v24.37c0,0.59-0.33,0.84-0.88,0.84h-2.62
	c-0.55,0-0.9-0.25-0.9-0.84V18.59h-6.61c-0.59,0-0.71-0.21-0.71-0.79v-1.9c0-0.59,0.12-0.82,0.71-0.82h17.64V15.07z"/>
<path d="M155.48,42.96c0,0.59-0.25,0.84-0.84,0.84h-2.57c-0.55,0-0.69-0.25-0.69-0.84V15.94c0-0.59,0.14-0.86,0.69-0.86h2.57
	c0.59,0,0.84,0.27,0.84,0.86V42.96z"/>
<path d="M190.53,28.36l6.29-12.47c0.21-0.42,0.42-0.81,0.93-0.81h2.57c0.55,0,0.86,0.26,0.57,0.81l-8.26,16.52V43
	c0,0.55-0.25,0.8-0.79,0.8h-2.58c-0.59,0-0.73-0.25-0.73-0.8V32.4l-8.39-16.52c-0.25-0.5-0.03-0.81,0.56-0.81h2.53
	c0.55,0,0.72,0.31,0.97,0.81L190.53,28.36z"/>
<path d="M118.25,15.07c0.55,0,0.84,0.26,1.01,0.81L127.45,43c0.17,0.51-0.04,0.81-0.63,0.81h-2.67c-0.55,0-0.8-0.29-0.93-0.79
	l-1.94-6.54h-8.68l-1.94,6.54c-0.13,0.5-0.38,0.79-0.93,0.79h-2.71c-0.55,0-0.76-0.29-0.59-0.8l8.19-27.12
	c0.17-0.55,0.46-0.81,1.01-0.81h2.62V15.07z M116.94,21.28l-3.45,11.97h6.92L116.94,21.28z"/>
<path class="st0" d="M22.63,7v8.02h4.34V6.97l5.6,3.24l2.16-3.76l-5.66-3.27c-1.3-0.76-2.77-1.13-4.28-1.13s-2.96,0.4-4.27,1.15
	l-5.67,3.29l2.17,3.75L22.63,7z"/>
<path class="st1" d="M22.63,7v8.02h4.34V6.97l5.6,3.24l2.16-3.76l-5.66-3.27c-1.3-0.76-2.77-1.13-4.28-1.13s-2.96,0.4-4.27,1.15
	l-5.67,3.29l2.17,3.75L22.63,7z"/>
<path class="st2" d="M22.63,51.75v-8.02h4.34v8.06l5.6-3.24l2.16,3.76l-5.61,3.25c-1.31,0.76-2.82,1.15-4.33,1.15
	s-2.96-0.4-4.27-1.15l-5.67-3.29l2.17-3.75L22.63,51.75z"/>
<path class="st3" d="M43.09,16.31l-6.95,4.01l2.17,3.75l6.98-4.03v6.47l4.33-0.01l0.01-6.56c0-1.51-0.41-2.94-1.16-4.24
	s-1.83-2.37-3.14-3.12l-5.68-3.27l-2.16,3.76L43.09,16.31z"/>
<path class="st4" d="M4.33,38.69l6.95-4.01l2.17,3.75l-6.97,4.03l5.61,3.23l-2.17,3.75l-5.68-3.27c-1.31-0.75-2.34-1.82-3.09-3.13
	c-0.75-1.3-1.14-2.77-1.13-4.27l0.01-6.56l4.33,0.01L4.33,38.69z"/>
<path class="st5" d="M4.33,20.06l6.95,4.01l2.17-3.75l-6.97-4.03l5.61-3.23L9.91,9.31l-5.67,3.27c-1.31,0.75-2.35,1.83-3.11,3.13
	C0.38,17.02-0.01,18.48,0,19.98l0.01,6.56l4.33-0.01L4.33,20.06z"/>
<path class="st6" d="M43.09,42.44l-6.95-4.01l2.17-3.76l6.98,4.03v-6.47l4.33,0.01l0.01,6.62c0,1.51-0.41,2.88-1.16,4.18
	c-0.75,1.31-1.83,2.37-3.14,3.12l-5.68,3.27l-2.16-3.76L43.09,42.44z"/>
<polygon class="st1" points="25.37,19.19 25.37,28.39 33.28,23.82 "/>
<polygon class="st5" points="24.22,19.19 16.31,23.82 24.22,28.39 "/>
<polygon class="st4" points="23.66,29.39 15.83,24.87 15.83,33.91 "/>
<polygon class="st3" points="25.98,29.39 33.76,33.88 33.76,24.9 "/>
<polygon class="st2" points="24.22,30.39 16.37,34.92 24.22,39.51 "/>
<polygon class="st6" points="25.37,30.39 25.37,39.51 33.22,34.92 "/>
</svg>
