<?xml version="1.0" encoding="utf-8"?>
<!-- Generator: Adobe Illustrator 23.0.0, SVG Export Plug-In . SVG Version: 6.00 Build 0)  -->
<svg version="1.1" id="Layer_1" xmlns="http://www.w3.org/2000/svg" xmlns:xlink="http://www.w3.org/1999/xlink" x="0px" y="0px"
	 viewBox="0 0 207 55" style="enable-background:new 0 0 207 55;" xml:space="preserve">
<style type="text/css">
	.st0{fill:#FFFFFF;}
	.st1{fill:#3D9BD6;}
	.st2{fill:#006F62;}
	.st3{fill:#EF3340;}
	.st4{fill:#00B2A9;}
	.st5{fill:#E40046;}
	.st6{fill:#8A1B61;}
	.st7{fill:#F1B434;}
</style>
<path class="st0" d="M74.45,20c0-2.21-1.23-3.48-4.83-3.48c-3.6,0-4.83,1.27-4.83,3.48v0.82c0,1.88,1.16,2.41,2.02,2.74l7.43,2.83
	c2.46,0.94,4.48,2.54,4.48,5.57v3.4c0,3.36-2.38,6.31-9.22,6.31c-6.84,0-9.26-2.95-9.26-6.31v-2.38c0-0.57,0.33-0.75,0.86-0.75h2.41
	c0.53,0,0.71,0.17,0.71,0.75v1.84c0,2.21,1.56,3.48,5.24,3.48c3.68,0,5.28-1.27,5.28-3.48V32.9c0-2.05-1.82-2.74-3.42-3.36
	l-6.89-2.66c-1.8-0.7-3.62-2.54-3.62-5.08v-2.34c0-3.36,2.1-6.31,8.77-6.31c6.67,0,8.86,2.95,8.86,6.31v1.8
	c0,0.53-0.18,0.73-0.71,0.73H75.3c-0.57,0-0.85-0.2-0.85-0.73V20z"/>
<path class="st0" d="M101.05,35.35c0,3.36-2.06,6.31-9.1,6.31c-7.04,0-9.1-2.95-9.1-6.31V19.47c0-3.36,2.06-6.31,9.1-6.31
	c7.04,0,9.1,2.95,9.1,6.31v2.01c0,0.57-0.2,0.81-0.73,0.81h-2.37c-0.57,0-0.88-0.24-0.88-0.81v-1.35c0-2.21-1.45-3.56-5.14-3.56
	c-3.69,0-5.1,1.35-5.1,3.56V34.7c0,2.21,1.41,3.56,5.1,3.56c3.68,0,5.14-1.35,5.14-3.56v-1.93c0-0.53,0.3-0.82,0.88-0.82h2.37
	c0.53,0,0.73,0.29,0.73,0.82V35.35z"/>
<path class="st0" d="M131.27,37.92h10.49c0.53,0,0.88,0.18,0.88,0.75v1.88c0,0.57-0.35,0.78-0.88,0.78h-13.84
	c-0.45,0-0.63-0.29-0.63-0.82V14.31c0-0.57,0.18-0.84,0.76-0.84h2.5c0.53,0,0.73,0.27,0.73,0.84V37.92z"/>
<path class="st0" d="M172.96,13.47c0.53,0,0.68,0.23,0.68,0.8v1.84c0,0.57-0.14,0.77-0.68,0.77h-6.43v23.63
	c0,0.57-0.32,0.82-0.86,0.82h-2.54c-0.53,0-0.87-0.25-0.87-0.82V16.88h-6.42c-0.57,0-0.69-0.2-0.69-0.77v-1.84
	c0-0.57,0.12-0.8,0.69-0.8H172.96z"/>
<path class="st0" d="M150.85,40.51c0,0.57-0.24,0.82-0.81,0.82h-2.5c-0.53,0-0.67-0.25-0.67-0.82V14.31c0-0.57,0.14-0.84,0.67-0.84
	h2.5c0.57,0,0.81,0.27,0.81,0.84V40.51z"/>
<path class="st0" d="M184.84,26.35l6.1-12.1c0.2-0.41,0.41-0.79,0.9-0.79h2.5c0.53,0,0.83,0.26,0.55,0.79l-8.01,16.02v10.28
	c0,0.53-0.24,0.78-0.77,0.78h-2.5c-0.57,0-0.71-0.25-0.71-0.78V30.27l-8.14-16.02c-0.25-0.49-0.03-0.79,0.54-0.79h2.45
	c0.54,0,0.7,0.3,0.94,0.79L184.84,26.35z"/>
<path class="st0" d="M114.74,13.47c0.53,0,0.82,0.26,0.98,0.79l7.94,26.29c0.16,0.49-0.04,0.78-0.61,0.78h-2.59
	c-0.53,0-0.78-0.28-0.9-0.77l-1.88-6.34h-8.42l-1.88,6.34c-0.12,0.49-0.37,0.77-0.9,0.77h-2.63c-0.53,0-0.74-0.29-0.57-0.78
	l7.95-26.3c0.16-0.53,0.45-0.79,0.98-0.79H114.74z M113.47,19.49l-3.35,11.61h6.71L113.47,19.49z"/>
<path class="st1" d="M21.99,5.64v7.78h4.2V5.61l5.43,3.14l2.1-3.64l-5.49-3.18c-1.26-0.73-2.69-1.09-4.15-1.09
	c-1.46,0-2.87,0.39-4.14,1.12l-5.5,3.19l2.11,3.64L21.99,5.64z"/>
<path class="st2" d="M21.99,5.64v7.78h4.2V5.61l5.43,3.14l2.1-3.64l-5.49-3.18c-1.26-0.73-2.69-1.09-4.15-1.09
	c-1.46,0-2.87,0.39-4.14,1.12l-5.5,3.19l2.11,3.64L21.99,5.64z"/>
<path class="st3" d="M21.99,49.04v-7.78h4.2v7.82l5.43-3.15l2.1,3.64l-5.44,3.15c-1.27,0.73-2.74,1.12-4.2,1.12
	c-1.46,0-2.87-0.39-4.14-1.12l-5.5-3.19l2.11-3.64L21.99,49.04z"/>
<path class="st4" d="M41.83,14.67l-6.74,3.89l2.1,3.64l6.77-3.9l0,6.28l4.2-0.01l0.01-6.37c0-1.46-0.4-2.85-1.13-4.11
	c-0.73-1.27-1.77-2.3-3.04-3.02l-5.51-3.17l-2.1,3.64L41.83,14.67z"/>
<path class="st5" d="M4.25,36.37l6.74-3.89l2.1,3.64l-6.76,3.91l5.44,3.14L9.66,46.8l-5.51-3.17c-1.27-0.73-2.27-1.77-3-3.04
	c-0.73-1.27-1.1-2.68-1.1-4.15l0.01-6.36l4.2,0.01L4.25,36.37z"/>
<path class="st6" d="M4.25,18.3l6.74,3.89l2.1-3.64l-6.76-3.91l5.44-3.13L9.66,7.87l-5.5,3.17c-1.27,0.73-2.28,1.77-3.01,3.04
	c-0.73,1.27-1.1,2.68-1.1,4.15l0.01,6.36l4.2-0.01L4.25,18.3z"/>
<path class="st7" d="M41.83,40l-6.74-3.89l2.1-3.64l6.77,3.91l0-6.28l4.2,0.01l0.01,6.42c0,1.46-0.4,2.79-1.13,4.05
	c-0.73,1.27-1.77,2.3-3.04,3.03l-5.51,3.17l-2.1-3.64L41.83,40z"/>
<polygon class="st2" points="24.66,17.46 24.66,26.38 32.33,21.95 "/>
<polygon class="st6" points="23.53,17.46 15.87,21.95 23.53,26.38 "/>
<polygon class="st5" points="23,27.35 15.4,22.97 15.4,31.73 "/>
<polygon class="st4" points="25.24,27.35 32.79,31.71 32.79,22.99 "/>
<polygon class="st3" points="23.53,28.32 15.93,32.71 23.53,37.17 "/>
<polygon class="st7" points="24.66,28.32 24.66,37.17 32.26,32.71 "/>
</svg>
