<?xml version="1.0" encoding="utf-8"?>
<!-- Generator: Adobe Illustrator 23.0.0, SVG Export Plug-In . SVG Version: 6.00 Build 0)  -->
<svg version="1.1" xmlns="http://www.w3.org/2000/svg" xmlns:xlink="http://www.w3.org/1999/xlink" x="0px" y="0px"
	 viewBox="0 0 410 501.2" style="enable-background:new 0 0 410 501.2;" xml:space="preserve">
<g id="Layer_1">
</g>
<g id="Layer_2">
	<path d="M204.4,25.3C123.5,25.3,57.8,91,57.8,172s65.7,146.7,146.7,146.7c81,0,146.7-65.7,146.7-146.7
		C351.1,91,285.5,25.3,204.4,25.3z M204.4,264.9c-51.3,0-92.9-41.6-92.9-92.9c0-51.3,41.6-92.9,92.9-92.9
		c51.3,0,92.9,41.6,92.9,92.9C297.4,223.3,255.8,264.9,204.4,264.9z"/>
	<g>
		<path d="M57.6,494.1V351.6h31.3c7.1,0,13.4,0.7,18.8,2c5.4,1.3,10.1,3.5,14.2,6.3c4.1,2.9,7.1,6.8,9.3,11.6
			c2.1,4.9,3.2,10.7,3.2,17.5c0,3-0.1,5.6-0.3,7.9c-0.2,2.3-0.7,5-1.5,8c-0.8,3-1.8,5.6-3.1,7.9c-1.3,2.3-3.2,4.6-5.7,6.8
			c-2.5,2.2-5.4,4.1-8.8,5.5c8.5,27.1,16,50.1,22.3,68.9h-29.8l-16.3-65.6h-4.8v65.6L57.6,494.1L57.6,494.1z M86.4,410.9h8.2
			c2.2,0,4.1-0.7,5.7-2.2c1.6-1.5,2.7-3.4,3.4-5.6c0.7-2.3,1.2-4.4,1.5-6.3s0.4-3.7,0.4-5.4s-0.1-3.4-0.4-5.2
			c-0.2-1.8-0.7-3.8-1.3-6c-0.6-2.2-1.6-4-3-5.4c-1.4-1.4-3.1-2.1-5.1-2.1h-9.6V410.9z"/>
		<path d="M143.3,494.1V351.6h28.8v142.5H143.3z"/>
		<path d="M183.7,494.1V351.5h20.7l31.3,74.6v-74.6h23.9v142.6h-20L208.5,415v79.1H183.7z"/>
		<path d="M268.5,449.6v-50.2c0-33.7,14-50.5,42-50.5c5.9,0,11.2,0.8,15.8,2.3c4.6,1.6,8.5,3.7,11.6,6.5c3.1,2.7,5.7,6.1,7.7,10.1
			c2,4,3.5,8.4,4.4,13.1c0.9,4.7,1.3,9.9,1.3,15.5v8.4h-27.6v-10c0-2.5-0.1-4.7-0.2-6.5c-0.1-1.9-0.5-4-1-6.3
			c-0.5-2.3-1.2-4.2-2.1-5.7c-0.9-1.5-2.2-2.7-3.9-3.7s-3.7-1.5-6-1.5c-8.8,0-13.2,7-13.2,21.1v61.5c0,14,4.4,21,13.2,21
			c8.8,0,13.1-7.3,13.1-21.8v-11.4h-16.3v-20.7h45.1v73.3h-19.8l-3.6-10c-2.4,3.8-5.9,6.9-10.4,9.2c-4.5,2.4-9.1,3.5-13.9,3.5
			c-5.1,0-9.8-0.9-14-2.8c-4.2-1.9-7.7-4.4-10.4-7.4c-2.7-3.1-5-6.7-6.8-10.9c-1.9-4.2-3.2-8.4-4-12.8
			C268.9,458.6,268.5,454.1,268.5,449.6z"/>
	</g>
</g>
</svg>
